<svg width="898" height="171" viewBox="0 0 898 171" fill="none" xmlns="http://www.w3.org/2000/svg">
<path d="M38.8135 155.359V125.278L70.1729 107.176L101.746 125.438V155.466L70.1729 137.257L38.8135 155.359Z" fill="#061A40"/>
<path d="M0.106587 53.7209H30.1883L48.2906 85.0804L30.0284 116.653H0L18.2089 85.0804L0.106587 53.7209Z" fill="#061A40"/>
<path d="M101.746 15.0143V45.0958L70.3861 63.198L38.8135 44.9361V14.9077L70.3861 33.1164L101.746 15.0143Z" fill="#061A40"/>
<path d="M140.451 116.653H110.424L92.3213 85.2932L110.53 53.7209H140.611L122.35 85.2932L140.451 116.653Z" fill="#3E6BF7"/>
<path d="M229.719 141.187V37.7144H247.625V141.187H229.719ZM298.466 142.827C291.176 142.827 284.524 141.141 278.51 137.77C272.587 134.398 267.848 129.796 264.294 123.964C260.832 118.132 259.1 111.48 259.1 104.008C259.1 96.5356 260.832 89.8834 264.294 84.0514C267.848 78.2195 272.587 73.6176 278.51 70.246C284.433 66.8744 291.085 65.1886 298.466 65.1886C305.756 65.1886 312.363 66.8744 318.286 70.246C324.209 73.6176 328.902 78.2195 332.365 84.0514C335.918 89.7923 337.695 96.4444 337.695 104.008C337.695 111.48 335.918 118.132 332.365 123.964C328.811 129.796 324.072 134.398 318.149 137.77C312.226 141.141 305.665 142.827 298.466 142.827ZM298.466 126.425C302.476 126.425 305.984 125.468 308.991 123.554C312.089 121.64 314.504 118.998 316.235 115.626C318.058 112.163 318.969 108.291 318.969 104.008C318.969 99.6338 318.058 95.8066 316.235 92.5261C314.504 89.1544 312.089 86.5118 308.991 84.5982C305.984 82.5934 302.476 81.5911 298.466 81.5911C294.366 81.5911 290.766 82.5934 287.668 84.5982C284.57 86.5118 282.109 89.1544 280.287 92.5261C278.555 95.8066 277.69 99.6338 277.69 104.008C277.69 108.291 278.555 112.163 280.287 115.626C282.109 118.998 284.57 121.64 287.668 123.554C290.766 125.468 294.366 126.425 298.466 126.425ZM371.778 142.827C366.583 142.827 362.073 141.961 358.245 140.23C354.418 138.499 351.457 136.038 349.361 132.849C347.265 129.568 346.217 125.787 346.217 121.504C346.217 117.403 347.128 113.758 348.951 110.569C350.773 107.288 353.598 104.555 357.425 102.368C361.253 100.181 366.082 98.6314 371.914 97.7202L396.245 93.7563V107.425L375.331 110.979C371.778 111.617 369.135 112.756 367.404 114.396C365.672 116.036 364.806 118.178 364.806 120.82C364.806 123.372 365.763 125.422 367.677 126.971C369.682 128.429 372.142 129.158 375.058 129.158C378.794 129.158 382.075 128.384 384.9 126.835C387.816 125.194 390.048 122.962 391.597 120.137C393.237 117.312 394.058 114.214 394.058 110.842V91.7059C394.058 88.5166 392.782 85.8739 390.23 83.7781C387.77 81.5911 384.489 80.4976 380.389 80.4976C376.562 80.4976 373.144 81.5455 370.137 83.6414C367.221 85.6461 365.08 88.3343 363.713 91.7059L349.087 84.5982C350.545 80.6798 352.824 77.3082 355.922 74.4833C359.111 71.5673 362.847 69.2892 367.13 67.649C371.413 66.0087 376.06 65.1886 381.072 65.1886C387.178 65.1886 392.554 66.3276 397.201 68.6058C401.849 70.7928 405.448 73.891 408 77.9005C410.642 81.8189 411.964 86.4207 411.964 91.7059V141.187H395.014V128.475L398.842 128.201C396.928 131.391 394.65 134.079 392.007 136.266C389.365 138.362 386.358 140.002 382.986 141.187C379.614 142.28 375.878 142.827 371.778 142.827ZM426.463 141.187V66.8288H443.276V81.4544L441.909 78.8573C443.64 74.3922 446.465 71.0206 450.383 68.7425C454.393 66.3732 459.04 65.1886 464.326 65.1886C469.793 65.1886 474.623 66.3732 478.814 68.7425C483.097 71.1117 486.423 74.4378 488.793 78.7206C491.162 82.9124 492.346 87.7876 492.346 93.3462V141.187H474.44V97.5835C474.44 94.303 473.803 91.4781 472.527 89.1089C471.251 86.7396 469.474 84.9171 467.196 83.6414C465.009 82.2745 462.412 81.5911 459.405 81.5911C456.489 81.5911 453.892 82.2745 451.614 83.6414C449.336 84.9171 447.559 86.7396 446.283 89.1089C445.007 91.4781 444.369 94.303 444.369 97.5835V141.187H426.463ZM533.732 142.827C525.804 142.827 518.878 140.959 512.955 137.223C507.123 133.396 503.114 128.247 500.927 121.777L514.322 115.353C516.236 119.545 518.878 122.825 522.25 125.194C525.713 127.564 529.54 128.748 533.732 128.748C537.012 128.748 539.609 128.019 541.523 126.561C543.437 125.103 544.393 123.19 544.393 120.82C544.393 119.362 543.983 118.178 543.163 117.266C542.434 116.264 541.386 115.444 540.019 114.806C538.744 114.077 537.331 113.485 535.782 113.029L523.617 109.612C517.329 107.789 512.545 105.01 509.265 101.274C506.075 97.5379 504.481 93.1184 504.481 88.0154C504.481 83.4591 505.62 79.4952 507.898 76.1236C510.267 72.6608 513.502 69.9727 517.603 68.059C521.794 66.1454 526.578 65.1886 531.955 65.1886C538.971 65.1886 545.168 66.8744 550.544 70.246C555.921 73.6176 559.748 78.3561 562.026 84.4615L548.357 90.8858C547.082 87.5142 544.94 84.826 541.933 82.8213C538.926 80.8165 535.554 79.8141 531.818 79.8141C528.811 79.8141 526.442 80.4976 524.71 81.8645C522.979 83.2313 522.113 85.0083 522.113 87.1953C522.113 88.5621 522.478 89.7468 523.207 90.7491C523.936 91.7515 524.938 92.5716 526.214 93.2095C527.581 93.8474 529.13 94.4397 530.861 94.9864L542.753 98.5403C548.858 100.363 553.551 103.097 556.832 106.742C560.204 110.387 561.889 114.852 561.889 120.137C561.889 124.602 560.705 128.566 558.335 132.029C555.966 135.4 552.686 138.043 548.494 139.957C544.302 141.87 539.382 142.827 533.732 142.827ZM609.412 142.827C602.031 142.827 595.379 141.141 589.455 137.77C583.623 134.307 579.022 129.659 575.65 123.827C572.278 117.904 570.593 111.252 570.593 103.871C570.593 96.49 572.278 89.8834 575.65 84.0514C579.022 78.2195 583.623 73.6176 589.455 70.246C595.379 66.8744 602.031 65.1886 609.412 65.1886C614.697 65.1886 619.618 66.1454 624.174 68.059C628.73 69.8815 632.649 72.433 635.929 75.7135C639.301 78.9029 641.716 82.7301 643.174 87.1953L627.454 94.0296C626.088 90.2935 623.764 87.2864 620.483 85.0083C617.294 82.7301 613.603 81.5911 609.412 81.5911C605.493 81.5911 601.985 82.5479 598.887 84.4615C595.88 86.3751 593.51 89.0178 591.779 92.3894C590.048 95.761 589.182 99.6338 589.182 104.008C589.182 108.382 590.048 112.255 591.779 115.626C593.51 118.998 595.88 121.64 598.887 123.554C601.985 125.468 605.493 126.425 609.412 126.425C613.695 126.425 617.431 125.285 620.62 123.007C623.809 120.729 626.088 117.677 627.454 113.849L643.174 120.957C641.716 125.149 639.346 128.93 636.066 132.302C632.785 135.583 628.867 138.18 624.311 140.093C619.754 141.916 614.788 142.827 609.412 142.827ZM676.996 142.827C671.802 142.827 667.291 141.961 663.464 140.23C659.637 138.499 656.675 136.038 654.579 132.849C652.484 129.568 651.436 125.787 651.436 121.504C651.436 117.403 652.347 113.758 654.169 110.569C655.992 107.288 658.817 104.555 662.644 102.368C666.471 100.181 671.301 98.6314 677.133 97.7202L701.463 93.7563V107.425L680.55 110.979C676.996 111.617 674.354 112.756 672.622 114.396C670.891 116.036 670.025 118.178 670.025 120.82C670.025 123.372 670.982 125.422 672.896 126.971C674.9 128.429 677.361 129.158 680.277 129.158C684.013 129.158 687.293 128.384 690.118 126.835C693.034 125.194 695.267 122.962 696.816 120.137C698.456 117.312 699.276 114.214 699.276 110.842V91.7059C699.276 88.5166 698 85.8739 695.449 83.7781C692.989 81.5911 689.708 80.4976 685.607 80.4976C681.78 80.4976 678.363 81.5455 675.356 83.6414C672.44 85.6461 670.298 88.3343 668.932 91.7059L654.306 84.5982C655.764 80.6798 658.042 77.3082 661.14 74.4833C664.33 71.5673 668.066 69.2892 672.349 67.649C676.632 66.0087 681.279 65.1886 686.291 65.1886C692.396 65.1886 697.773 66.3276 702.42 68.6058C707.067 70.7928 710.667 73.891 713.218 77.9005C715.861 81.8189 717.182 86.4207 717.182 91.7059V141.187H700.233V128.475L704.06 128.201C702.147 131.391 699.868 134.079 697.226 136.266C694.583 138.362 691.576 140.002 688.205 141.187C684.833 142.28 681.097 142.827 676.996 142.827ZM731.682 168.524V66.8288H748.494V81.5911L746.854 77.9005C749.406 73.891 752.868 70.7928 757.242 68.6058C761.616 66.3276 766.674 65.1886 772.415 65.1886C779.431 65.1886 785.764 66.92 791.414 70.3827C797.064 73.8455 801.529 78.4928 804.81 84.3248C808.181 90.1568 809.867 96.7178 809.867 104.008C809.867 111.207 808.227 117.768 804.946 123.691C801.666 129.614 797.201 134.307 791.551 137.77C785.901 141.141 779.477 142.827 772.278 142.827C766.902 142.827 761.935 141.779 757.379 139.683C752.914 137.496 749.36 134.398 746.717 130.388L749.588 126.835V168.524H731.682ZM770.228 126.425C774.328 126.425 777.973 125.468 781.163 123.554C784.352 121.64 786.812 118.998 788.544 115.626C790.366 112.255 791.277 108.382 791.277 104.008C791.277 99.6338 790.366 95.8066 788.544 92.5261C786.812 89.1544 784.352 86.5118 781.163 84.5982C777.973 82.5934 774.328 81.5911 770.228 81.5911C766.309 81.5911 762.755 82.5479 759.566 84.4615C756.468 86.3751 754.007 89.0633 752.185 92.5261C750.454 95.8977 749.588 99.7249 749.588 104.008C749.588 108.382 750.454 112.255 752.185 115.626C754.007 118.998 756.468 121.64 759.566 123.554C762.755 125.468 766.309 126.425 770.228 126.425ZM856.734 142.827C849.079 142.827 842.381 141.096 836.641 137.633C830.9 134.17 826.435 129.477 823.245 123.554C820.056 117.631 818.461 111.07 818.461 103.871C818.461 96.3989 820.056 89.7923 823.245 84.0514C826.526 78.2195 830.945 73.6176 836.504 70.246C842.154 66.8744 848.441 65.1886 855.367 65.1886C861.199 65.1886 866.302 66.1454 870.676 68.059C875.141 69.9727 878.923 72.6153 882.021 75.9869C885.119 79.3585 887.488 83.2313 889.129 87.6053C890.769 91.8882 891.589 96.5356 891.589 101.547C891.589 102.823 891.498 104.144 891.316 105.511C891.224 106.878 890.997 108.063 890.632 109.065H833.223V95.3965H880.517L872.043 101.821C872.863 97.6291 872.635 93.8929 871.359 90.6124C870.175 87.3319 868.17 84.7349 865.345 82.8213C862.611 80.9076 859.285 79.9508 855.367 79.9508C851.631 79.9508 848.305 80.9076 845.389 82.8213C842.473 84.6438 840.24 87.3775 838.691 91.0225C837.233 94.5764 836.686 98.9048 837.051 104.008C836.686 108.564 837.278 112.619 838.828 116.173C840.468 119.636 842.837 122.324 845.935 124.238C849.125 126.151 852.77 127.108 856.87 127.108C860.971 127.108 864.434 126.242 867.259 124.511C870.175 122.78 872.453 120.456 874.093 117.54L888.582 124.648C887.124 128.201 884.846 131.345 881.747 134.079C878.649 136.813 874.959 138.954 870.676 140.503C866.484 142.052 861.837 142.827 856.734 142.827Z" fill="#061A40"/>
</svg>
